<?xml version="1.0" encoding="utf-8"?>
<svg viewBox="0 0 500 500" xmlns="http://www.w3.org/2000/svg">
  <ellipse style="paint-order: fill; stroke: rgb(0, 0, 0); fill: rgba(216, 216, 216, 0); stroke-width: 21px;" cx="250.024" cy="249.843" rx="238.944" ry="238.944" transform="matrix(1, 0, 0, 1, -1.1368683772161603e-13, 0)"/>
  <path d="M 396.326 396.204 L 99.015 396.204 C 80.101 396.204 64.711 380.812 64.711 361.898 L 64.711 178.938 C 64.711 160.024 80.101 144.633 99.015 144.633 L 149.112 144.633 L 168.792 105.228 C 170.712 101.34 174.68 98.893 179.014 98.893 L 316.349 98.893 C 320.683 98.893 324.639 101.34 326.584 105.228 L 346.228 144.633 L 396.326 144.633 C 415.239 144.633 430.63 160.024 430.63 178.938 L 430.63 361.898 C 430.63 380.812 415.239 396.204 396.326 396.204 Z M 407.76 178.938 C 407.76 172.638 402.626 167.503 396.326 167.503 L 339.15 167.503 C 338.579 167.503 338.087 167.263 337.539 167.183 C 336.726 167.057 335.915 166.989 335.137 166.692 C 334.439 166.428 333.856 166.005 333.227 165.605 C 332.61 165.227 331.98 164.908 331.443 164.404 C 330.838 163.844 330.402 163.158 329.934 162.471 C 329.614 162.014 329.167 161.683 328.916 161.168 L 309.271 121.763 L 186.092 121.763 L 166.425 161.168 C 165.887 162.255 165.167 163.192 164.367 164.015 C 164.206 164.187 164.011 164.29 163.84 164.45 C 163.017 165.194 162.113 165.799 161.13 166.268 C 160.798 166.439 160.479 166.577 160.124 166.714 C 158.866 167.172 157.563 167.492 156.213 167.503 C 156.202 167.503 156.202 167.503 156.19 167.503 L 99.015 167.503 C 92.715 167.503 87.58 172.638 87.58 178.938 L 87.58 361.898 C 87.58 368.199 92.715 373.333 99.015 373.333 L 396.326 373.333 C 402.626 373.333 407.76 368.199 407.76 361.898 L 407.76 178.938 Z M 247.671 339.029 C 203.532 339.029 167.625 303.122 167.625 258.984 C 167.625 214.844 203.532 178.938 247.671 178.938 C 291.809 178.938 327.716 214.844 327.716 258.984 C 327.716 303.122 291.809 339.029 247.671 339.029 Z M 247.671 201.809 C 216.144 201.809 190.496 227.457 190.496 258.984 C 190.496 290.51 216.144 316.158 247.671 316.158 C 279.197 316.158 304.845 290.51 304.845 258.984 C 304.845 227.457 279.197 201.809 247.671 201.809 Z" style="" transform="matrix(1, 0, 0, 1, -1.1368683772161603e-13, 0)"/>
</svg>